<svg width="256" height="179" viewBox="0 0 256 179" fill="none" xmlns="http://www.w3.org/2000/svg">
<rect x="4.5" y="4.5" width="91" height="59" rx="4.5" stroke="#7B61FF" stroke-dasharray="10 5"/>
<path d="M34.5006 34.293L36.6466 32.146C36.7405 32.0521 36.8679 31.9994 37.0006 31.9994C37.1334 31.9994 37.2607 32.0521 37.3546 32.146C37.4485 32.2399 37.5013 32.3672 37.5013 32.5C37.5013 32.6328 37.4485 32.7601 37.3546 32.854L34.3546 35.854C34.3082 35.9006 34.253 35.9375 34.1923 35.9627C34.1315 35.9879 34.0664 36.0009 34.0006 36.0009C33.9349 36.0009 33.8697 35.9879 33.809 35.9627C33.7483 35.9375 33.6931 35.9006 33.6466 35.854L30.6466 32.854C30.5527 32.7601 30.5 32.6328 30.5 32.5C30.5 32.3672 30.5527 32.2399 30.6466 32.146C30.7405 32.0521 30.8679 31.9994 31.0006 31.9994C31.1334 31.9994 31.2607 32.0521 31.3546 32.146L33.5006 34.293V29.5C33.5006 29.3674 33.5533 29.2402 33.6471 29.1464C33.7408 29.0527 33.868 29 34.0006 29C34.1332 29 34.2604 29.0527 34.3542 29.1464C34.448 29.2402 34.5006 29.3674 34.5006 29.5V34.293Z" fill="black"/>
<path d="M29.5554 27.3482C30.871 26.4692 32.4178 26 34 26C36.1217 26 38.1566 26.8429 39.6569 28.3431C41.1571 29.8434 42 31.8783 42 34C42 35.5823 41.5308 37.129 40.6518 38.4446C39.8075 39.708 38.6217 40.7038 37.2343 41.3171L37.1978 41.3536L37.1835 41.3393C37.143 41.3569 37.1023 41.3741 37.0615 41.391C35.5997 41.9965 33.9911 42.155 32.4393 41.8463C31.8787 41.7348 31.3346 41.5641 30.8156 41.3389L30.8009 41.3536L30.7632 41.316C29.8657 40.9189 29.0442 40.3579 28.3431 39.6569C27.2243 38.538 26.4624 37.1126 26.1537 35.5607C25.845 34.0089 26.0035 32.4003 26.609 30.9385C27.2145 29.4767 28.2398 28.2273 29.5554 27.3482ZM38.9498 38.9497C39.2443 38.6552 39.5098 38.3372 39.7446 38H35.2584L37.3853 40.127C37.9544 39.8126 38.4818 39.4177 38.9498 38.9497ZM28.2554 38C28.7524 38.7137 29.3806 39.3322 30.111 39.8203C30.2747 39.9296 30.4424 40.0318 30.6138 40.1265L32.7402 38H28.2554ZM34 41C34.8319 41 35.6485 40.8519 36.4145 40.5704L33.9993 38.1551L31.5844 40.57C32.354 40.853 33.1715 41 34 41ZM27.6754 37H40.3246C40.7651 36.0711 41 35.0477 41 34C41 32.6155 40.5895 31.2622 39.8203 30.111C39.0511 28.9599 37.9579 28.0627 36.6788 27.5328C35.3997 27.003 33.9922 26.8644 32.6344 27.1345C31.2765 27.4046 30.0292 28.0713 29.0503 29.0503C28.0713 30.0292 27.4046 31.2765 27.1345 32.6344C26.8644 33.9922 27.003 35.3997 27.5328 36.6788C27.5778 36.7872 27.6253 36.8943 27.6754 37Z" fill="black"/>
<path fill-rule="evenodd" clip-rule="evenodd" d="M74 34C74 35.0609 73.7935 36.0736 73.4185 37L58.5815 37C58.2065 36.0736 58 35.0609 58 34C58 29.5817 61.5817 26 66 26C70.4183 26 74 29.5817 74 34ZM68.6466 32.146L66.5006 34.293V29.5C66.5006 29.3674 66.448 29.2402 66.3542 29.1464C66.2604 29.0527 66.1332 29 66.0006 29C65.868 29 65.7408 29.0527 65.6471 29.1464C65.5533 29.2402 65.5006 29.3674 65.5006 29.5V34.293L63.3546 32.146C63.2607 32.0521 63.1334 31.9994 63.0006 31.9994C62.8679 31.9994 62.7405 32.0521 62.6466 32.146C62.5527 32.2399 62.5 32.3672 62.5 32.5C62.5 32.6328 62.5527 32.7601 62.6466 32.854L65.6466 35.854C65.6931 35.9006 65.7483 35.9375 65.809 35.9627C65.8697 35.9879 65.9349 36.0009 66.0006 36.0009C66.0664 36.0009 66.1315 35.9879 66.1923 35.9627C66.253 35.9375 66.3082 35.9006 66.3546 35.854L69.3546 32.854C69.4485 32.7601 69.5013 32.6328 69.5013 32.5C69.5013 32.3672 69.4485 32.2399 69.3546 32.146C69.2607 32.0521 69.1334 31.9994 69.0006 31.9994C68.8679 31.9994 68.7405 32.0521 68.6466 32.146Z" fill="black"/>
<path d="M67.264 38H72.9297C72.2508 39.1737 71.2823 40.1588 70.1219 40.8578L67.264 38Z" fill="black"/>
<path d="M69.189 41.3391L66.0569 38.2071L62.8906 41.3732C63.8465 41.7768 64.8972 42 66 42C67.1335 42 68.2119 41.7643 69.189 41.3391Z" fill="black"/>
<path d="M64.8498 38L61.9494 40.9002C60.7573 40.1989 59.763 39.1976 59.0703 38L64.8498 38Z" fill="black"/>
<path d="M119.605 30H118.516L117.625 27.6445H114.062L113.225 30H112.129L115.352 21.5977H116.371L119.605 30ZM117.303 26.7598L115.984 23.1797C115.941 23.0625 115.898 22.875 115.855 22.6172H115.832C115.793 22.8555 115.748 23.043 115.697 23.1797L114.391 26.7598H117.303ZM123.848 24.9727C123.68 24.8438 123.438 24.7793 123.121 24.7793C122.711 24.7793 122.367 24.9727 122.09 25.3594C121.816 25.7461 121.68 26.2734 121.68 26.9414V30H120.719V24H121.68V25.2363H121.703C121.84 24.8145 122.049 24.4863 122.33 24.252C122.611 24.0137 122.926 23.8945 123.273 23.8945C123.523 23.8945 123.715 23.9219 123.848 23.9766V24.9727ZM128.02 24.9727C127.852 24.8438 127.609 24.7793 127.293 24.7793C126.883 24.7793 126.539 24.9727 126.262 25.3594C125.988 25.7461 125.852 26.2734 125.852 26.9414V30H124.891V24H125.852V25.2363H125.875C126.012 24.8145 126.221 24.4863 126.502 24.252C126.783 24.0137 127.098 23.8945 127.445 23.8945C127.695 23.8945 127.887 23.9219 128.02 23.9766V24.9727ZM131.57 30.1406C130.684 30.1406 129.975 29.8613 129.443 29.3027C128.916 28.7402 128.652 27.9961 128.652 27.0703C128.652 26.0625 128.928 25.2754 129.479 24.709C130.029 24.1426 130.773 23.8594 131.711 23.8594C132.605 23.8594 133.303 24.1348 133.803 24.6855C134.307 25.2363 134.559 26 134.559 26.9766C134.559 27.9336 134.287 28.7012 133.744 29.2793C133.205 29.8535 132.48 30.1406 131.57 30.1406ZM131.641 24.668C131.023 24.668 130.535 24.8789 130.176 25.3008C129.816 25.7188 129.637 26.2969 129.637 27.0352C129.637 27.7461 129.818 28.3066 130.182 28.7168C130.545 29.127 131.031 29.332 131.641 29.332C132.262 29.332 132.738 29.1309 133.07 28.7285C133.406 28.3262 133.574 27.7539 133.574 27.0117C133.574 26.2617 133.406 25.6836 133.07 25.2773C132.738 24.8711 132.262 24.668 131.641 24.668ZM143.652 24L141.854 30H140.857L139.621 25.7051C139.574 25.541 139.543 25.3555 139.527 25.1484H139.504C139.492 25.2891 139.451 25.4707 139.381 25.6934L138.039 30H137.078L135.262 24H136.27L137.512 28.5117C137.551 28.6484 137.578 28.8281 137.594 29.0508H137.641C137.652 28.8789 137.688 28.6953 137.746 28.5L139.129 24H140.008L141.25 28.5234C141.289 28.668 141.318 28.8477 141.338 29.0625H141.385C141.393 28.9102 141.426 28.7305 141.484 28.5234L142.703 24H143.652ZM148.188 30V21.5977H150.508C153.469 21.5977 154.949 22.9629 154.949 25.6934C154.949 26.9902 154.537 28.0332 153.713 28.8223C152.893 29.6074 151.793 30 150.414 30H148.188ZM149.172 22.4883V29.1094H150.426C151.527 29.1094 152.385 28.8145 152.998 28.2246C153.611 27.6348 153.918 26.7988 153.918 25.7168C153.918 23.5645 152.773 22.4883 150.484 22.4883H149.172ZM158.98 30.1406C158.094 30.1406 157.385 29.8613 156.854 29.3027C156.326 28.7402 156.062 27.9961 156.062 27.0703C156.062 26.0625 156.338 25.2754 156.889 24.709C157.439 24.1426 158.184 23.8594 159.121 23.8594C160.016 23.8594 160.713 24.1348 161.213 24.6855C161.717 25.2363 161.969 26 161.969 26.9766C161.969 27.9336 161.697 28.7012 161.154 29.2793C160.615 29.8535 159.891 30.1406 158.98 30.1406ZM159.051 24.668C158.434 24.668 157.945 24.8789 157.586 25.3008C157.227 25.7188 157.047 26.2969 157.047 27.0352C157.047 27.7461 157.229 28.3066 157.592 28.7168C157.955 29.127 158.441 29.332 159.051 29.332C159.672 29.332 160.148 29.1309 160.48 28.7285C160.816 28.3262 160.984 27.7539 160.984 27.0117C160.984 26.2617 160.816 25.6836 160.48 25.2773C160.148 24.8711 159.672 24.668 159.051 24.668ZM171.062 24L169.264 30H168.268L167.031 25.7051C166.984 25.541 166.953 25.3555 166.938 25.1484H166.914C166.902 25.2891 166.861 25.4707 166.791 25.6934L165.449 30H164.488L162.672 24H163.68L164.922 28.5117C164.961 28.6484 164.988 28.8281 165.004 29.0508H165.051C165.062 28.8789 165.098 28.6953 165.156 28.5L166.539 24H167.418L168.66 28.5234C168.699 28.668 168.729 28.8477 168.748 29.0625H168.795C168.803 28.9102 168.836 28.7305 168.895 28.5234L170.113 24H171.062ZM177.156 30H176.195V26.5781C176.195 25.3047 175.73 24.668 174.801 24.668C174.32 24.668 173.922 24.8496 173.605 25.2129C173.293 25.5723 173.137 26.0273 173.137 26.5781V30H172.176V24H173.137V24.9961H173.16C173.613 24.2383 174.27 23.8594 175.129 23.8594C175.785 23.8594 176.287 24.0723 176.635 24.498C176.982 24.9199 177.156 25.5312 177.156 26.332V30ZM182.395 30V21.5977H184.715C187.676 21.5977 189.156 22.9629 189.156 25.6934C189.156 26.9902 188.744 28.0332 187.92 28.8223C187.1 29.6074 186 30 184.621 30H182.395ZM183.379 22.4883V29.1094H184.633C185.734 29.1094 186.592 28.8145 187.205 28.2246C187.818 27.6348 188.125 26.7988 188.125 25.7168C188.125 23.5645 186.98 22.4883 184.691 22.4883H183.379ZM193.809 24.9727C193.641 24.8438 193.398 24.7793 193.082 24.7793C192.672 24.7793 192.328 24.9727 192.051 25.3594C191.777 25.7461 191.641 26.2734 191.641 26.9414V30H190.68V24H191.641V25.2363H191.664C191.801 24.8145 192.01 24.4863 192.291 24.252C192.572 24.0137 192.887 23.8945 193.234 23.8945C193.484 23.8945 193.676 23.9219 193.809 23.9766V24.9727ZM195.344 22.4766C195.172 22.4766 195.025 22.418 194.904 22.3008C194.783 22.1836 194.723 22.0352 194.723 21.8555C194.723 21.6758 194.783 21.5273 194.904 21.4102C195.025 21.2891 195.172 21.2285 195.344 21.2285C195.52 21.2285 195.668 21.2891 195.789 21.4102C195.914 21.5273 195.977 21.6758 195.977 21.8555C195.977 22.0273 195.914 22.1738 195.789 22.2949C195.668 22.416 195.52 22.4766 195.344 22.4766ZM195.812 30H194.852V24H195.812V30ZM198.719 30H197.758V21.1172H198.719V30ZM201.625 30H200.664V21.1172H201.625V30ZM212.711 29.6484C212.09 29.9766 211.316 30.1406 210.391 30.1406C209.195 30.1406 208.238 29.7559 207.52 28.9863C206.801 28.2168 206.441 27.207 206.441 25.957C206.441 24.6133 206.846 23.5273 207.654 22.6992C208.463 21.8711 209.488 21.457 210.73 21.457C211.527 21.457 212.188 21.5723 212.711 21.8027V22.8516C212.109 22.5156 211.445 22.3477 210.719 22.3477C209.754 22.3477 208.971 22.6699 208.369 23.3145C207.771 23.959 207.473 24.8203 207.473 25.8984C207.473 26.9219 207.752 27.7383 208.311 28.3477C208.873 28.9531 209.609 29.2559 210.52 29.2559C211.363 29.2559 212.094 29.0684 212.711 28.6934V29.6484ZM214.785 22.4766C214.613 22.4766 214.467 22.418 214.346 22.3008C214.225 22.1836 214.164 22.0352 214.164 21.8555C214.164 21.6758 214.225 21.5273 214.346 21.4102C214.467 21.2891 214.613 21.2285 214.785 21.2285C214.961 21.2285 215.109 21.2891 215.23 21.4102C215.355 21.5273 215.418 21.6758 215.418 21.8555C215.418 22.0273 215.355 22.1738 215.23 22.2949C215.109 22.416 214.961 22.4766 214.785 22.4766ZM215.254 30H214.293V24H215.254V30ZM220.328 24.9727C220.16 24.8438 219.918 24.7793 219.602 24.7793C219.191 24.7793 218.848 24.9727 218.57 25.3594C218.297 25.7461 218.16 26.2734 218.16 26.9414V30H217.199V24H218.16V25.2363H218.184C218.32 24.8145 218.529 24.4863 218.811 24.252C219.092 24.0137 219.406 23.8945 219.754 23.8945C220.004 23.8945 220.195 23.9219 220.328 23.9766V24.9727ZM225.461 29.7246C225 30.002 224.453 30.1406 223.82 30.1406C222.965 30.1406 222.273 29.8633 221.746 29.3086C221.223 28.75 220.961 28.0273 220.961 27.1406C220.961 26.1523 221.244 25.3594 221.811 24.7617C222.377 24.1602 223.133 23.8594 224.078 23.8594C224.605 23.8594 225.07 23.957 225.473 24.1523V25.1367C225.027 24.8242 224.551 24.668 224.043 24.668C223.43 24.668 222.926 24.8887 222.531 25.3301C222.141 25.7676 221.945 26.3438 221.945 27.0586C221.945 27.7617 222.129 28.3164 222.496 28.7227C222.867 29.1289 223.363 29.332 223.984 29.332C224.508 29.332 225 29.1582 225.461 28.8105V29.7246ZM227.875 30H226.914V21.1172H227.875V30ZM234.643 27.2402H230.406C230.422 27.9082 230.602 28.4238 230.945 28.7871C231.289 29.1504 231.762 29.332 232.363 29.332C233.039 29.332 233.66 29.1094 234.227 28.6641V29.5664C233.699 29.9492 233.002 30.1406 232.135 30.1406C231.287 30.1406 230.621 29.8691 230.137 29.3262C229.652 28.7793 229.41 28.0117 229.41 27.0234C229.41 26.0898 229.674 25.3301 230.201 24.7441C230.732 24.1543 231.391 23.8594 232.176 23.8594C232.961 23.8594 233.568 24.1133 233.998 24.6211C234.428 25.1289 234.643 25.834 234.643 26.7363V27.2402ZM233.658 26.4258C233.654 25.8711 233.52 25.4395 233.254 25.1309C232.992 24.8223 232.627 24.668 232.158 24.668C231.705 24.668 231.32 24.8301 231.004 25.1543C230.688 25.4785 230.492 25.9023 230.418 26.4258H233.658Z" fill="black"/>
<path d="M114.232 39.5977H116.359C117.516 39.5977 118.412 39.8984 119.049 40.5C119.686 41.0977 120.004 41.9336 120.004 43.0078C120.004 44.0039 119.801 44.8809 119.395 45.6387C118.988 46.3926 118.402 46.9746 117.637 47.3848C116.875 47.7949 115.98 48 114.953 48H112.439L114.232 39.5977ZM114.994 47.3027C116.299 47.3027 117.326 46.9277 118.076 46.1777C118.83 45.4238 119.207 44.3867 119.207 43.0664C119.207 41.2188 118.201 40.2949 116.189 40.2949H114.854L113.359 47.3027H114.994ZM121.82 42H122.553L122.354 43.3711H122.377C122.643 42.8633 122.92 42.4844 123.209 42.2344C123.502 41.9805 123.838 41.8535 124.217 41.8535C124.439 41.8535 124.648 41.8945 124.844 41.9766L124.709 42.7676H124.686C124.475 42.6309 124.258 42.5625 124.035 42.5625C123.609 42.5625 123.197 42.8281 122.799 43.3594C122.404 43.8867 122.119 44.5547 121.943 45.3633L121.381 48H120.643L121.48 44.0625C121.664 43.2383 121.777 42.5508 121.82 42ZM125.998 42H126.742L125.846 46.2246C125.768 46.623 125.729 46.8984 125.729 47.0508C125.729 47.3281 125.879 47.4668 126.18 47.4668C126.359 47.4668 126.521 47.4395 126.666 47.3848L126.543 47.9824C126.348 48.0605 126.139 48.0996 125.916 48.0996C125.611 48.0996 125.377 48.0215 125.213 47.8652C125.053 47.7051 124.973 47.4727 124.973 47.168C124.973 46.9531 125.018 46.6309 125.107 46.2012L125.998 42ZM126.801 40.4941C126.652 40.4941 126.525 40.4414 126.42 40.3359C126.318 40.2266 126.268 40.0996 126.268 39.9551C126.268 39.8027 126.32 39.6797 126.426 39.5859C126.531 39.4883 126.656 39.4395 126.801 39.4395C126.945 39.4395 127.07 39.4883 127.176 39.5859C127.281 39.6797 127.334 39.8027 127.334 39.9551C127.334 40.1074 127.279 40.2363 127.17 40.3418C127.064 40.4434 126.941 40.4941 126.801 40.4941ZM129.402 39.1172H130.146L128.635 46.2246C128.557 46.623 128.518 46.8984 128.518 47.0508C128.518 47.3281 128.668 47.4668 128.969 47.4668C129.148 47.4668 129.311 47.4395 129.455 47.3848L129.332 47.9824C129.137 48.0605 128.928 48.0996 128.705 48.0996C128.4 48.0996 128.166 48.0215 128.002 47.8652C127.842 47.7051 127.762 47.4727 127.762 47.168C127.762 46.9258 127.807 46.6035 127.896 46.2012L129.402 39.1172ZM132.191 39.1172H132.936L131.424 46.2246C131.346 46.623 131.307 46.8984 131.307 47.0508C131.307 47.3281 131.457 47.4668 131.758 47.4668C131.938 47.4668 132.1 47.4395 132.244 47.3848L132.121 47.9824C131.926 48.0605 131.717 48.0996 131.494 48.0996C131.189 48.0996 130.955 48.0215 130.791 47.8652C130.631 47.7051 130.551 47.4727 130.551 47.168C130.551 46.9258 130.596 46.6035 130.686 46.2012L132.191 39.1172ZM137.74 42.6387H136.691L136.838 42H137.869L138.191 40.4824L138.982 40.2422L138.607 42H140.172L140.025 42.6387H138.473L137.729 46.1367C137.658 46.4531 137.623 46.7109 137.623 46.9102C137.623 47.1055 137.664 47.248 137.746 47.3379C137.828 47.4277 137.965 47.4727 138.156 47.4727C138.34 47.4727 138.639 47.3809 139.053 47.1973L138.906 47.8652C138.773 47.9316 138.613 47.9883 138.426 48.0352C138.242 48.0859 138.084 48.1113 137.951 48.1113C137.232 48.1113 136.873 47.7402 136.873 46.998C136.873 46.7676 136.91 46.4902 136.984 46.166L137.74 42.6387ZM142.463 48.1465C141.795 48.1465 141.268 47.9414 140.881 47.5312C140.494 47.1172 140.301 46.541 140.301 45.8027C140.301 45.0762 140.438 44.4102 140.711 43.8047C140.988 43.1953 141.375 42.7188 141.871 42.375C142.371 42.0273 142.92 41.8535 143.518 41.8535C144.182 41.8535 144.707 42.0625 145.094 42.4805C145.48 42.8945 145.674 43.4648 145.674 44.1914C145.674 44.9297 145.535 45.6035 145.258 46.2129C144.984 46.8184 144.602 47.293 144.109 47.6367C143.621 47.9766 143.072 48.1465 142.463 48.1465ZM142.516 47.502C142.957 47.502 143.363 47.3574 143.734 47.0684C144.105 46.7793 144.395 46.3848 144.602 45.8848C144.812 45.3848 144.918 44.8379 144.918 44.2441C144.918 43.6777 144.787 43.2461 144.525 42.9492C144.268 42.6484 143.912 42.498 143.459 42.498C142.791 42.498 142.223 42.8125 141.754 43.4414C141.289 44.0664 141.057 44.8379 141.057 45.7559C141.057 46.3027 141.188 46.7305 141.449 47.0391C141.711 47.3477 142.066 47.502 142.516 47.502ZM153.66 48C153.676 47.6094 153.74 47.0762 153.854 46.4004H153.83C153.502 46.9785 153.164 47.4141 152.816 47.707C152.469 48 152.072 48.1465 151.627 48.1465C151.092 48.1465 150.674 47.959 150.373 47.584C150.072 47.2051 149.922 46.6621 149.922 45.9551C149.922 45.209 150.08 44.5156 150.396 43.875C150.713 43.2344 151.146 42.7383 151.697 42.3867C152.252 42.0312 152.869 41.8535 153.549 41.8535C153.924 41.8535 154.326 41.9082 154.756 42.0176L155.371 39.1172H156.098L154.621 46.125C154.586 46.2734 154.543 46.5781 154.492 47.0391C154.445 47.5 154.422 47.8203 154.422 48H153.66ZM154.621 42.6738C154.262 42.5566 153.885 42.498 153.49 42.498C152.959 42.498 152.482 42.6426 152.061 42.9316C151.643 43.2168 151.307 43.625 151.053 44.1562C150.803 44.6875 150.678 45.2637 150.678 45.8848C150.678 46.9629 151.055 47.502 151.809 47.502C152.121 47.502 152.441 47.3652 152.77 47.0918C153.102 46.8145 153.402 46.4316 153.672 45.9434C153.945 45.4512 154.143 44.9258 154.264 44.3672L154.621 42.6738ZM157.064 45.7266C157.064 46.2891 157.213 46.7266 157.51 47.0391C157.807 47.3477 158.217 47.502 158.74 47.502C159.275 47.502 159.85 47.3223 160.463 46.9629L160.322 47.7012C159.795 47.998 159.232 48.1465 158.635 48.1465C157.889 48.1465 157.314 47.9277 156.912 47.4902C156.51 47.0527 156.309 46.4395 156.309 45.6504C156.309 44.9746 156.453 44.3438 156.742 43.7578C157.035 43.168 157.43 42.7031 157.926 42.3633C158.422 42.0234 158.955 41.8535 159.525 41.8535C160.068 41.8535 160.502 41.9902 160.826 42.2637C161.154 42.5332 161.318 42.8945 161.318 43.3477C161.318 44.0391 160.979 44.5527 160.299 44.8887C159.623 45.2246 158.549 45.4004 157.076 45.416L157.064 45.7266ZM157.164 44.7832C158.328 44.7832 159.186 44.6719 159.736 44.4492C160.287 44.2266 160.562 43.877 160.562 43.4004C160.562 43.1074 160.463 42.8848 160.264 42.7324C160.068 42.5762 159.793 42.498 159.438 42.498C158.906 42.498 158.428 42.7129 158.002 43.1426C157.576 43.5684 157.297 44.1152 157.164 44.7832ZM163.182 42.6387H162.133L162.279 42H163.311L163.633 40.4824L164.424 40.2422L164.049 42H165.613L165.467 42.6387H163.914L163.17 46.1367C163.1 46.4531 163.064 46.7109 163.064 46.9102C163.064 47.1055 163.105 47.248 163.188 47.3379C163.27 47.4277 163.406 47.4727 163.598 47.4727C163.781 47.4727 164.08 47.3809 164.494 47.1973L164.348 47.8652C164.215 47.9316 164.055 47.9883 163.867 48.0352C163.684 48.0859 163.525 48.1113 163.393 48.1113C162.674 48.1113 162.314 47.7402 162.314 46.998C162.314 46.7676 162.352 46.4902 162.426 46.166L163.182 42.6387ZM169.48 48C169.496 47.5898 169.562 47.0508 169.68 46.3828H169.656C169.297 47.0156 168.943 47.4688 168.596 47.7422C168.252 48.0117 167.869 48.1465 167.447 48.1465C166.908 48.1465 166.488 47.957 166.188 47.5781C165.891 47.1953 165.742 46.6582 165.742 45.9668C165.742 45.2207 165.902 44.5234 166.223 43.875C166.547 43.2227 166.986 42.7227 167.541 42.375C168.1 42.0273 168.723 41.8535 169.41 41.8535C169.914 41.8535 170.543 41.9297 171.297 42.082L170.494 45.9551C170.439 46.2129 170.383 46.5645 170.324 47.0098C170.27 47.4551 170.242 47.7852 170.242 48H169.48ZM170.447 42.6211C170.076 42.5391 169.699 42.498 169.316 42.498C168.785 42.498 168.307 42.6426 167.881 42.9316C167.455 43.2207 167.117 43.6309 166.867 44.1621C166.621 44.6934 166.498 45.2773 166.498 45.9141C166.498 46.9727 166.873 47.502 167.623 47.502C167.939 47.502 168.264 47.3652 168.596 47.0918C168.928 46.8145 169.23 46.4238 169.504 45.9199C169.777 45.416 169.971 44.9082 170.084 44.3965L170.447 42.6211ZM173.213 42H173.957L173.061 46.2246C172.982 46.623 172.943 46.8984 172.943 47.0508C172.943 47.3281 173.094 47.4668 173.395 47.4668C173.574 47.4668 173.736 47.4395 173.881 47.3848L173.758 47.9824C173.562 48.0605 173.354 48.0996 173.131 48.0996C172.826 48.0996 172.592 48.0215 172.428 47.8652C172.268 47.7051 172.188 47.4727 172.188 47.168C172.188 46.9531 172.232 46.6309 172.322 46.2012L173.213 42ZM174.016 40.4941C173.867 40.4941 173.74 40.4414 173.635 40.3359C173.533 40.2266 173.482 40.0996 173.482 39.9551C173.482 39.8027 173.535 39.6797 173.641 39.5859C173.746 39.4883 173.871 39.4395 174.016 39.4395C174.16 39.4395 174.285 39.4883 174.391 39.5859C174.496 39.6797 174.549 39.8027 174.549 39.9551C174.549 40.1074 174.494 40.2363 174.385 40.3418C174.279 40.4434 174.156 40.4941 174.016 40.4941ZM176.617 39.1172H177.361L175.85 46.2246C175.771 46.623 175.732 46.8984 175.732 47.0508C175.732 47.3281 175.883 47.4668 176.184 47.4668C176.363 47.4668 176.525 47.4395 176.67 47.3848L176.547 47.9824C176.352 48.0605 176.143 48.0996 175.92 48.0996C175.615 48.0996 175.381 48.0215 175.217 47.8652C175.057 47.7051 174.977 47.4727 174.977 47.168C174.977 46.9258 175.021 46.6035 175.111 46.2012L176.617 39.1172Z" fill="#616161"/>
<rect x="4.5" y="96.5" width="91" height="59" rx="4.5" stroke="#7B61FF" stroke-dasharray="10 5"/>
<path d="M36 133.5C36 133.776 35.7761 134 35.5 134H29C27.3431 134 26 132.657 26 131V121C26 119.343 27.3431 118 29 118H35.5C35.7761 118 36 118.224 36 118.5C36 118.776 35.7761 119 35.5 119H29C27.8954 119 27 119.895 27 121V131C27 132.105 27.8954 133 29 133H35.5C35.7761 133 36 133.224 36 133.5Z" fill="black"/>
<path d="M38.4143 121.354C38.6096 121.159 38.9261 121.159 39.1214 121.354L40.8892 123.122C41.0844 123.317 41.0844 123.634 40.8892 123.829L39.1214 125.597C38.9261 125.792 38.6096 125.792 38.4143 125.597C38.219 125.401 38.219 125.085 38.4143 124.89L39.3036 124H32.5C32.2239 124 32 123.776 32 123.5C32 123.224 32.2239 123 32.5 123H39.3534L38.4143 122.061C38.219 121.866 38.219 121.549 38.4143 121.354Z" fill="black"/>
<path d="M34.6209 126.354C34.4256 126.159 34.109 126.159 33.9138 126.354L32.146 128.122C31.9507 128.317 31.9507 128.634 32.146 128.829L33.9138 130.597C34.109 130.792 34.4256 130.792 34.6209 130.597C34.8161 130.401 34.8161 130.085 34.6209 129.889L33.7316 129H40.5352C40.8113 129 41.0352 128.776 41.0352 128.5C41.0352 128.224 40.8113 128 40.5352 128H33.6818L34.6209 127.061C34.8161 126.866 34.8161 126.549 34.6209 126.354Z" fill="black"/>
<path d="M59.4907 130.5L59.4907 121.5C59.4907 120.395 60.3806 119.5 61.4783 119.5H67.2547C67.6663 119.5 68 119.164 68 118.75C68 118.336 67.6663 118 67.2547 118H61.4783C59.5573 118 58 119.567 58 121.5V130.5C58 132.433 59.5573 134 61.4783 134L67.2547 134C67.6663 134 68 133.664 68 133.25C68 132.836 67.6663 132.5 67.2547 132.5L61.4783 132.5C60.3806 132.5 59.4907 131.605 59.4907 130.5Z" fill="black"/>
<path d="M70.2375 121.177C70.5304 120.884 71.0053 120.884 71.2982 121.177L73.066 122.945C73.3589 123.238 73.3589 123.713 73.066 124.006L71.2982 125.773C71.0053 126.066 70.5304 126.066 70.2376 125.773C69.9447 125.48 69.9447 125.006 70.2376 124.713L70.4501 124.5H64.75C64.3358 124.5 64 124.164 64 123.75C64 123.336 64.3358 123 64.75 123H70.9999L70.2375 122.238C69.9447 121.945 69.9447 121.47 70.2375 121.177Z" fill="black"/>
<path d="M67.0476 126.177C66.7547 125.884 66.2798 125.884 65.9869 126.177L64.2192 127.945C63.9263 128.238 63.9263 128.713 64.2192 129.006L65.9869 130.773C66.2798 131.066 66.7547 131.066 67.0476 130.773C67.3405 130.48 67.3405 130.006 67.0476 129.713L66.8351 129.5H72.5352C72.9494 129.5 73.2852 129.164 73.2852 128.75C73.2852 128.336 72.9494 128 72.5352 128H66.2853L67.0476 127.238C67.3405 126.945 67.3405 126.47 67.0476 126.177Z" fill="black"/>
<path d="M119.605 122H118.516L117.625 119.645H114.062L113.225 122H112.129L115.352 113.598H116.371L119.605 122ZM117.303 118.76L115.984 115.18C115.941 115.062 115.898 114.875 115.855 114.617H115.832C115.793 114.855 115.748 115.043 115.697 115.18L114.391 118.76H117.303ZM123.848 116.973C123.68 116.844 123.438 116.779 123.121 116.779C122.711 116.779 122.367 116.973 122.09 117.359C121.816 117.746 121.68 118.273 121.68 118.941V122H120.719V116H121.68V117.236H121.703C121.84 116.814 122.049 116.486 122.33 116.252C122.611 116.014 122.926 115.895 123.273 115.895C123.523 115.895 123.715 115.922 123.848 115.977V116.973ZM128.02 116.973C127.852 116.844 127.609 116.779 127.293 116.779C126.883 116.779 126.539 116.973 126.262 117.359C125.988 117.746 125.852 118.273 125.852 118.941V122H124.891V116H125.852V117.236H125.875C126.012 116.814 126.221 116.486 126.502 116.252C126.783 116.014 127.098 115.895 127.445 115.895C127.695 115.895 127.887 115.922 128.02 115.977V116.973ZM131.57 122.141C130.684 122.141 129.975 121.861 129.443 121.303C128.916 120.74 128.652 119.996 128.652 119.07C128.652 118.062 128.928 117.275 129.479 116.709C130.029 116.143 130.773 115.859 131.711 115.859C132.605 115.859 133.303 116.135 133.803 116.686C134.307 117.236 134.559 118 134.559 118.977C134.559 119.934 134.287 120.701 133.744 121.279C133.205 121.854 132.48 122.141 131.57 122.141ZM131.641 116.668C131.023 116.668 130.535 116.879 130.176 117.301C129.816 117.719 129.637 118.297 129.637 119.035C129.637 119.746 129.818 120.307 130.182 120.717C130.545 121.127 131.031 121.332 131.641 121.332C132.262 121.332 132.738 121.131 133.07 120.729C133.406 120.326 133.574 119.754 133.574 119.012C133.574 118.262 133.406 117.684 133.07 117.277C132.738 116.871 132.262 116.668 131.641 116.668ZM143.652 116L141.854 122H140.857L139.621 117.705C139.574 117.541 139.543 117.355 139.527 117.148H139.504C139.492 117.289 139.451 117.471 139.381 117.693L138.039 122H137.078L135.262 116H136.27L137.512 120.512C137.551 120.648 137.578 120.828 137.594 121.051H137.641C137.652 120.879 137.688 120.695 137.746 120.5L139.129 116H140.008L141.25 120.523C141.289 120.668 141.318 120.848 141.338 121.062H141.385C141.393 120.91 141.426 120.73 141.484 120.523L142.703 116H143.652ZM152.641 122H148.188V113.598H152.453V114.488H149.172V117.283H152.207V118.168H149.172V121.109H152.641V122ZM158.512 116L156.496 119.035L158.477 122H157.357L156.18 120.055C156.105 119.934 156.018 119.781 155.916 119.598H155.893C155.873 119.633 155.781 119.785 155.617 120.055L154.416 122H153.309L155.354 119.059L153.396 116H154.516L155.676 118.051C155.762 118.203 155.846 118.359 155.928 118.52H155.951L157.451 116H158.512ZM160.129 114.477C159.957 114.477 159.811 114.418 159.689 114.301C159.568 114.184 159.508 114.035 159.508 113.855C159.508 113.676 159.568 113.527 159.689 113.41C159.811 113.289 159.957 113.229 160.129 113.229C160.305 113.229 160.453 113.289 160.574 113.41C160.699 113.527 160.762 113.676 160.762 113.855C160.762 114.027 160.699 114.174 160.574 114.295C160.453 114.416 160.305 114.477 160.129 114.477ZM160.598 122H159.637V116H160.598V122ZM165.326 121.941C165.1 122.066 164.801 122.129 164.43 122.129C163.379 122.129 162.854 121.543 162.854 120.371V116.82H161.822V116H162.854V114.535L163.814 114.225V116H165.326V116.82H163.814V120.201C163.814 120.604 163.883 120.891 164.02 121.062C164.156 121.234 164.383 121.32 164.699 121.32C164.941 121.32 165.15 121.254 165.326 121.121V121.941ZM178.598 122H177.619V116.363C177.619 115.918 177.646 115.373 177.701 114.729H177.678C177.584 115.107 177.5 115.379 177.426 115.543L174.555 122H174.074L171.209 115.59C171.127 115.402 171.043 115.115 170.957 114.729H170.934C170.965 115.064 170.98 115.613 170.98 116.375V122H170.031V113.598H171.332L173.91 119.457C174.109 119.906 174.238 120.242 174.297 120.465H174.332C174.5 120.004 174.635 119.66 174.736 119.434L177.367 113.598H178.598V122ZM185.535 122H184.574V121.051H184.551C184.152 121.777 183.535 122.141 182.699 122.141C181.27 122.141 180.555 121.289 180.555 119.586V116H181.51V119.434C181.51 120.699 181.994 121.332 182.963 121.332C183.432 121.332 183.816 121.16 184.117 120.816C184.422 120.469 184.574 120.016 184.574 119.457V116H185.535V122ZM188.441 122H187.48V113.117H188.441V122ZM193.17 121.941C192.943 122.066 192.645 122.129 192.273 122.129C191.223 122.129 190.697 121.543 190.697 120.371V116.82H189.666V116H190.697V114.535L191.658 114.225V116H193.17V116.82H191.658V120.201C191.658 120.604 191.727 120.891 191.863 121.062C192 121.234 192.227 121.32 192.543 121.32C192.785 121.32 192.994 121.254 193.17 121.121V121.941ZM194.945 114.477C194.773 114.477 194.627 114.418 194.506 114.301C194.385 114.184 194.324 114.035 194.324 113.855C194.324 113.676 194.385 113.527 194.506 113.41C194.627 113.289 194.773 113.229 194.945 113.229C195.121 113.229 195.27 113.289 195.391 113.41C195.516 113.527 195.578 113.676 195.578 113.855C195.578 114.027 195.516 114.174 195.391 114.295C195.27 114.416 195.121 114.477 194.945 114.477ZM195.414 122H194.453V116H195.414V122ZM198.344 121.133H198.32V124.76H197.359V116H198.32V117.055H198.344C198.816 116.258 199.508 115.859 200.418 115.859C201.191 115.859 201.795 116.129 202.229 116.668C202.662 117.203 202.879 117.922 202.879 118.824C202.879 119.828 202.635 120.633 202.146 121.238C201.658 121.84 200.99 122.141 200.143 122.141C199.365 122.141 198.766 121.805 198.344 121.133ZM198.32 118.713V119.551C198.32 120.047 198.48 120.469 198.801 120.816C199.125 121.16 199.535 121.332 200.031 121.332C200.613 121.332 201.068 121.109 201.396 120.664C201.729 120.219 201.895 119.6 201.895 118.807C201.895 118.139 201.74 117.615 201.432 117.236C201.123 116.857 200.705 116.668 200.178 116.668C199.619 116.668 199.17 116.863 198.83 117.254C198.49 117.641 198.32 118.127 198.32 118.713ZM205.375 122H204.414V113.117H205.375V122ZM212.143 119.24H207.906C207.922 119.908 208.102 120.424 208.445 120.787C208.789 121.15 209.262 121.332 209.863 121.332C210.539 121.332 211.16 121.109 211.727 120.664V121.566C211.199 121.949 210.502 122.141 209.635 122.141C208.787 122.141 208.121 121.869 207.637 121.326C207.152 120.779 206.91 120.012 206.91 119.023C206.91 118.09 207.174 117.33 207.701 116.744C208.232 116.154 208.891 115.859 209.676 115.859C210.461 115.859 211.068 116.113 211.498 116.621C211.928 117.129 212.143 117.834 212.143 118.736V119.24ZM211.158 118.426C211.154 117.871 211.02 117.439 210.754 117.131C210.492 116.822 210.127 116.668 209.658 116.668C209.205 116.668 208.82 116.83 208.504 117.154C208.188 117.479 207.992 117.902 207.918 118.426H211.158Z" fill="black"/>
<path d="M113.395 131.598H114.203L115.17 138.254C115.197 138.422 115.211 138.676 115.211 139.016H115.234C115.277 138.898 115.35 138.746 115.451 138.559C115.557 138.371 116.904 136.051 119.494 131.598H120.379L115.363 140H114.678L113.395 131.598ZM121.076 134H121.82L120.924 138.225C120.846 138.623 120.807 138.898 120.807 139.051C120.807 139.328 120.957 139.467 121.258 139.467C121.438 139.467 121.6 139.439 121.744 139.385L121.621 139.982C121.426 140.061 121.217 140.1 120.994 140.1C120.689 140.1 120.455 140.021 120.291 139.865C120.131 139.705 120.051 139.473 120.051 139.168C120.051 138.953 120.096 138.631 120.186 138.201L121.076 134ZM121.879 132.494C121.73 132.494 121.604 132.441 121.498 132.336C121.396 132.227 121.346 132.1 121.346 131.955C121.346 131.803 121.398 131.68 121.504 131.586C121.609 131.488 121.734 131.439 121.879 131.439C122.023 131.439 122.148 131.488 122.254 131.586C122.359 131.68 122.412 131.803 122.412 131.955C122.412 132.107 122.357 132.236 122.248 132.342C122.143 132.443 122.02 132.494 121.879 132.494ZM123.537 137.727C123.537 138.289 123.686 138.727 123.982 139.039C124.279 139.348 124.689 139.502 125.213 139.502C125.748 139.502 126.322 139.322 126.936 138.963L126.795 139.701C126.268 139.998 125.705 140.146 125.107 140.146C124.361 140.146 123.787 139.928 123.385 139.49C122.982 139.053 122.781 138.439 122.781 137.65C122.781 136.975 122.926 136.344 123.215 135.758C123.508 135.168 123.902 134.703 124.398 134.363C124.895 134.023 125.428 133.854 125.998 133.854C126.541 133.854 126.975 133.99 127.299 134.264C127.627 134.533 127.791 134.895 127.791 135.348C127.791 136.039 127.451 136.553 126.771 136.889C126.096 137.225 125.021 137.4 123.549 137.416L123.537 137.727ZM123.637 136.783C124.801 136.783 125.658 136.672 126.209 136.449C126.76 136.227 127.035 135.877 127.035 135.4C127.035 135.107 126.936 134.885 126.736 134.732C126.541 134.576 126.266 134.498 125.91 134.498C125.379 134.498 124.9 134.713 124.475 135.143C124.049 135.568 123.77 136.115 123.637 136.783ZM128.816 134H129.543L129.883 138.717V138.787V138.869L129.859 139.18H129.9C129.963 138.98 130.035 138.801 130.117 138.641L132.566 134H133.158L133.504 138.822L133.475 139.186H133.521C133.584 138.971 133.654 138.791 133.732 138.646L136.047 134H136.809L133.697 140H133L132.643 135.617L132.631 135.395L132.654 135.055H132.631C132.611 135.109 132.582 135.182 132.543 135.271C132.508 135.357 131.68 136.934 130.059 140H129.355L128.816 134ZM141.256 134H142L141.104 138.225C141.025 138.623 140.986 138.898 140.986 139.051C140.986 139.328 141.137 139.467 141.438 139.467C141.617 139.467 141.779 139.439 141.924 139.385L141.801 139.982C141.605 140.061 141.396 140.1 141.174 140.1C140.869 140.1 140.635 140.021 140.471 139.865C140.311 139.705 140.23 139.473 140.23 139.168C140.23 138.953 140.275 138.631 140.365 138.201L141.256 134ZM142.059 132.494C141.91 132.494 141.783 132.441 141.678 132.336C141.576 132.227 141.525 132.1 141.525 131.955C141.525 131.803 141.578 131.68 141.684 131.586C141.789 131.488 141.914 131.439 142.059 131.439C142.203 131.439 142.328 131.488 142.434 131.586C142.539 131.68 142.592 131.803 142.592 131.955C142.592 132.107 142.537 132.236 142.428 132.342C142.322 132.443 142.199 132.494 142.059 132.494ZM144.033 134H144.754C144.699 134.418 144.615 134.941 144.502 135.57H144.525C144.865 135.02 145.242 134.596 145.656 134.299C146.07 134.002 146.496 133.854 146.934 133.854C147.938 133.854 148.439 134.396 148.439 135.482C148.439 135.697 148.377 136.096 148.252 136.678L147.549 140H146.811L147.531 136.52C147.625 136.043 147.672 135.734 147.672 135.594C147.672 134.863 147.357 134.498 146.729 134.498C146.416 134.498 146.074 134.631 145.703 134.896C145.332 135.158 145.006 135.496 144.725 135.91C144.447 136.32 144.266 136.73 144.18 137.141L143.57 140H142.826L143.752 135.693C143.861 135.15 143.955 134.586 144.033 134ZM150.461 134H151.211C151.211 134.137 151.186 134.4 151.135 134.791C151.084 135.182 151.043 135.457 151.012 135.617H151.035C151.684 134.441 152.439 133.854 153.303 133.854C153.846 133.854 154.264 134.039 154.557 134.41C154.854 134.781 155.002 135.326 155.002 136.045C155.002 136.791 154.84 137.486 154.516 138.131C154.195 138.771 153.762 139.268 153.215 139.619C152.672 139.971 152.072 140.146 151.416 140.146C150.979 140.146 150.557 140.07 150.15 139.918L149.541 142.801H148.803L150.268 135.875C150.314 135.633 150.357 135.297 150.396 134.867C150.439 134.434 150.461 134.145 150.461 134ZM150.279 139.268C150.623 139.424 151.029 139.502 151.498 139.502C152.01 139.502 152.477 139.352 152.898 139.051C153.32 138.75 153.65 138.34 153.889 137.82C154.127 137.297 154.246 136.729 154.246 136.115C154.246 135.037 153.863 134.498 153.098 134.498C152.777 134.498 152.445 134.643 152.102 134.932C151.762 135.221 151.457 135.609 151.188 136.098C150.922 136.586 150.736 137.086 150.631 137.598L150.279 139.268ZM157 134H157.738L157.012 137.48C156.918 137.957 156.871 138.266 156.871 138.406C156.871 139.137 157.186 139.502 157.814 139.502C158.119 139.502 158.447 139.381 158.799 139.139C159.154 138.893 159.48 138.557 159.777 138.131C160.078 137.705 160.275 137.281 160.369 136.859L160.979 134H161.717L160.797 138.312C160.664 138.922 160.57 139.484 160.516 140H159.795L160.047 138.43H160.023C159.684 138.98 159.307 139.404 158.893 139.701C158.479 139.998 158.055 140.146 157.621 140.146C157.113 140.146 156.734 140.004 156.484 139.719C156.234 139.43 156.109 139.021 156.109 138.494C156.109 138.381 156.129 138.197 156.168 137.943C156.211 137.689 156.252 137.484 156.291 137.328L157 134ZM163.674 134.639H162.625L162.771 134H163.803L164.125 132.482L164.916 132.242L164.541 134H166.105L165.959 134.639H164.406L163.662 138.137C163.592 138.453 163.557 138.711 163.557 138.91C163.557 139.105 163.598 139.248 163.68 139.338C163.762 139.428 163.898 139.473 164.09 139.473C164.273 139.473 164.572 139.381 164.986 139.197L164.84 139.865C164.707 139.932 164.547 139.988 164.359 140.035C164.176 140.086 164.018 140.111 163.885 140.111C163.166 140.111 162.807 139.74 162.807 138.998C162.807 138.768 162.844 138.49 162.918 138.166L163.674 134.639ZM170.893 131.598H171.666L165.566 141.395H164.799L170.893 131.598ZM173.084 140.146C172.416 140.146 171.889 139.941 171.502 139.531C171.115 139.117 170.922 138.541 170.922 137.803C170.922 137.076 171.059 136.41 171.332 135.805C171.609 135.195 171.996 134.719 172.492 134.375C172.992 134.027 173.541 133.854 174.139 133.854C174.803 133.854 175.328 134.062 175.715 134.48C176.102 134.895 176.295 135.465 176.295 136.191C176.295 136.93 176.156 137.604 175.879 138.213C175.605 138.818 175.223 139.293 174.73 139.637C174.242 139.977 173.693 140.146 173.084 140.146ZM173.137 139.502C173.578 139.502 173.984 139.357 174.355 139.068C174.727 138.779 175.016 138.385 175.223 137.885C175.434 137.385 175.539 136.838 175.539 136.244C175.539 135.678 175.408 135.246 175.146 134.949C174.889 134.648 174.533 134.498 174.08 134.498C173.412 134.498 172.844 134.812 172.375 135.441C171.91 136.066 171.678 136.838 171.678 137.756C171.678 138.303 171.809 138.73 172.07 139.039C172.332 139.348 172.688 139.502 173.137 139.502ZM178.293 134H179.031L178.305 137.48C178.211 137.957 178.164 138.266 178.164 138.406C178.164 139.137 178.479 139.502 179.107 139.502C179.412 139.502 179.74 139.381 180.092 139.139C180.447 138.893 180.773 138.557 181.07 138.131C181.371 137.705 181.568 137.281 181.662 136.859L182.271 134H183.01L182.09 138.312C181.957 138.922 181.863 139.484 181.809 140H181.088L181.34 138.43H181.316C180.977 138.98 180.6 139.404 180.186 139.701C179.771 139.998 179.348 140.146 178.914 140.146C178.406 140.146 178.027 140.004 177.777 139.719C177.527 139.43 177.402 139.021 177.402 138.494C177.402 138.381 177.422 138.197 177.461 137.943C177.504 137.689 177.545 137.484 177.584 137.328L178.293 134ZM184.967 134.639H183.918L184.064 134H185.096L185.418 132.482L186.209 132.242L185.834 134H187.398L187.252 134.639H185.699L184.955 138.137C184.885 138.453 184.85 138.711 184.85 138.91C184.85 139.105 184.891 139.248 184.973 139.338C185.055 139.428 185.191 139.473 185.383 139.473C185.566 139.473 185.865 139.381 186.279 139.197L186.133 139.865C186 139.932 185.84 139.988 185.652 140.035C185.469 140.086 185.311 140.111 185.178 140.111C184.459 140.111 184.1 139.74 184.1 138.998C184.1 138.768 184.137 138.49 184.211 138.166L184.967 134.639ZM188.43 134H189.18C189.18 134.137 189.154 134.4 189.104 134.791C189.053 135.182 189.012 135.457 188.98 135.617H189.004C189.652 134.441 190.408 133.854 191.271 133.854C191.814 133.854 192.232 134.039 192.525 134.41C192.822 134.781 192.971 135.326 192.971 136.045C192.971 136.791 192.809 137.486 192.484 138.131C192.164 138.771 191.73 139.268 191.184 139.619C190.641 139.971 190.041 140.146 189.385 140.146C188.947 140.146 188.525 140.07 188.119 139.918L187.51 142.801H186.771L188.236 135.875C188.283 135.633 188.326 135.297 188.365 134.867C188.408 134.434 188.43 134.145 188.43 134ZM188.248 139.268C188.592 139.424 188.998 139.502 189.467 139.502C189.979 139.502 190.445 139.352 190.867 139.051C191.289 138.75 191.619 138.34 191.857 137.82C192.096 137.297 192.215 136.729 192.215 136.115C192.215 135.037 191.832 134.498 191.066 134.498C190.746 134.498 190.414 134.643 190.07 134.932C189.73 135.221 189.426 135.609 189.156 136.098C188.891 136.586 188.705 137.086 188.6 137.598L188.248 139.268ZM194.969 134H195.707L194.98 137.48C194.887 137.957 194.84 138.266 194.84 138.406C194.84 139.137 195.154 139.502 195.783 139.502C196.088 139.502 196.416 139.381 196.768 139.139C197.123 138.893 197.449 138.557 197.746 138.131C198.047 137.705 198.244 137.281 198.338 136.859L198.947 134H199.686L198.766 138.312C198.633 138.922 198.539 139.484 198.484 140H197.764L198.016 138.43H197.992C197.652 138.98 197.275 139.404 196.861 139.701C196.447 139.998 196.023 140.146 195.59 140.146C195.082 140.146 194.703 140.004 194.453 139.719C194.203 139.43 194.078 139.021 194.078 138.494C194.078 138.381 194.098 138.197 194.137 137.943C194.18 137.689 194.221 137.484 194.26 137.328L194.969 134ZM201.643 134.639H200.594L200.74 134H201.771L202.094 132.482L202.885 132.242L202.51 134H204.074L203.928 134.639H202.375L201.631 138.137C201.561 138.453 201.525 138.711 201.525 138.91C201.525 139.105 201.566 139.248 201.648 139.338C201.73 139.428 201.867 139.473 202.059 139.473C202.242 139.473 202.541 139.381 202.955 139.197L202.809 139.865C202.676 139.932 202.516 139.988 202.328 140.035C202.145 140.086 201.986 140.111 201.854 140.111C201.135 140.111 200.775 139.74 200.775 138.998C200.775 138.768 200.812 138.49 200.887 138.166L201.643 134.639Z" fill="#616161"/>
<rect x="3.5" y="3.5" width="249" height="153" stroke="#18A0FB"/>
<rect x="98" y="163" width="60" height="16" rx="2" fill="#18A0FB"/>
<path d="M102.011 175V174.125L104.718 171.32C105.578 170.41 105.999 169.902 105.999 169.195C105.999 168.398 105.382 167.898 104.57 167.898C103.706 167.898 103.152 168.461 103.156 169.32H102.003C102.003 167.859 103.097 166.891 104.593 166.891C106.101 166.891 107.148 167.875 107.148 169.16C107.148 170.055 106.73 170.762 105.265 172.242L103.675 173.906V173.965H107.277V175H102.011ZM108.527 173.438V172.461L111.984 167H113.473V172.414H114.531V173.438H113.473V175H112.32V173.438H108.527ZM112.328 172.414V168.437H112.266L109.793 172.352V172.414H112.328ZM118.706 175.109C117.026 175.109 115.85 174.164 115.858 172.867C115.85 171.859 116.557 171.012 117.467 170.852V170.805C116.675 170.617 116.147 169.883 116.155 169.023C116.147 167.801 117.225 166.891 118.706 166.891C120.171 166.891 121.249 167.801 121.257 169.023C121.249 169.887 120.721 170.617 119.944 170.805V170.852C120.839 171.012 121.546 171.859 121.553 172.867C121.546 174.164 120.37 175.109 118.706 175.109ZM118.706 174.121C119.694 174.121 120.323 173.59 120.331 172.789C120.323 171.957 119.635 171.363 118.706 171.363C117.76 171.363 117.073 171.957 117.081 172.789C117.073 173.59 117.706 174.121 118.706 174.121ZM118.706 170.398C119.503 170.398 120.073 169.887 120.081 169.125C120.073 168.375 119.518 167.879 118.706 167.879C117.878 167.879 117.323 168.375 117.331 169.125C117.323 169.887 117.897 170.398 118.706 170.398ZM130.854 173.672L128.979 171.797L127.1 173.672L126.361 172.934L128.236 171.059L126.361 169.184L127.1 168.441L128.979 170.316L130.854 168.441L131.592 169.184L129.717 171.059L131.592 172.934L130.854 173.672ZM139.576 167V175H138.366V168.211H138.319L136.405 169.461V168.305L138.401 167H139.576ZM144.491 175.109C143.022 175.109 141.917 174.187 141.87 172.914H143.042C143.104 173.602 143.718 174.094 144.491 174.094C145.409 174.094 146.077 173.398 146.077 172.437C146.077 171.461 145.39 170.75 144.44 170.742C143.956 170.742 143.417 170.926 143.116 171.195L142.011 171.031L142.46 167H146.858V168.035H143.464L143.21 170.273H143.257C143.569 169.969 144.12 169.742 144.714 169.742C146.171 169.742 147.249 170.867 147.245 172.414C147.249 173.973 146.101 175.109 144.491 175.109ZM148.782 175V174.125L151.489 171.32C152.348 170.41 152.77 169.902 152.77 169.195C152.77 168.398 152.153 167.898 151.34 167.898C150.477 167.898 149.922 168.461 149.926 169.32H148.774C148.774 167.859 149.868 166.891 151.364 166.891C152.872 166.891 153.919 167.875 153.919 169.16C153.919 170.055 153.501 170.762 152.036 172.242L150.446 173.906V173.965H154.047V175H148.782Z" fill="white"/>
<rect x="0.5" y="0.5" width="7" height="7" fill="white" stroke="#18A0FB" stroke-linecap="square"/>
<rect x="0.5" y="152.5" width="7" height="7" fill="white" stroke="#18A0FB" stroke-linecap="square"/>
<rect x="248.5" y="0.5" width="7" height="7" fill="white" stroke="#18A0FB" stroke-linecap="square"/>
<rect x="248.5" y="152.5" width="7" height="7" fill="white" stroke="#18A0FB" stroke-linecap="square"/>
<g filter="url(#filter0_d_165_13098)">
<path d="M222.5 77L220 64L231 70.5L225.5 72L222.5 77Z" fill="#010101"/>
<path d="M222.009 77.0944L222.256 78.3786L222.929 77.2572L225.825 72.4295L231.132 70.9824L232.273 70.6712L231.254 70.0695L220.254 63.5695L219.3 63.0053L219.509 64.0944L222.009 77.0944Z" stroke="white" stroke-linecap="square"/>
</g>
<defs>
<filter id="filter0_d_165_13098" x="215.599" y="60.0107" width="20.9458" height="23.7463" filterUnits="userSpaceOnUse" color-interpolation-filters="sRGB">
<feFlood flood-opacity="0" result="BackgroundImageFix"/>
<feColorMatrix in="SourceAlpha" type="matrix" values="0 0 0 0 0 0 0 0 0 0 0 0 0 0 0 0 0 0 127 0" result="hardAlpha"/>
<feOffset dy="1"/>
<feGaussianBlur stdDeviation="1.5"/>
<feColorMatrix type="matrix" values="0 0 0 0 0 0 0 0 0 0 0 0 0 0 0 0 0 0 0.35 0"/>
<feBlend mode="normal" in2="BackgroundImageFix" result="effect1_dropShadow_165_13098"/>
<feBlend mode="normal" in="SourceGraphic" in2="effect1_dropShadow_165_13098" result="shape"/>
</filter>
</defs>
</svg>
